# Exported from ProBuilder
# http://www.procore3d.com/probuilder
# 2/7/2019 6:39:19 AM

mtllib ./Inside_Wall.mtl
o Inside Wall

g Inside Wall
v 0 0 0
v 0.8394341 0 0
v 0 1 0
v 0.8394341 1 0
v 0.8394341 0 0
v 0.8394341 0 -0.1255721
v 0.8394341 1 0
v 0.8394341 1 -0.1255721
v 0.8394341 0 -0.1255721
v 0 0 -0.1255721
v 0.8394341 1 -0.1255721
v 0 1 -0.1255721
v 0 0 -0.1255721
v 0 0 0
v 0 1 -0.1255721
v 0 1 0
v 0 1 0
v 0.8394341 1 0
v 0 1 -0.1255721
v 0.8394341 1 -0.1255721
v 0 0 -0.1255721
v 0.8394341 0 -0.1255721
v 0 0 0
v 0.8394341 0 0

vn 0 0 1
vn 0 0 1
vn 0 0 1
vn 0 0 1
vn 1 0 0
vn 1 0 0
vn 1 0 0
vn 1 0 0
vn 0 0 -1
vn 0 0 -1
vn 0 0 -1
vn 0 0 -1
vn -1 0 0
vn -1 0 0
vn -1 0 0
vn -1 0 0
vn 0 1 0
vn 0 1 0
vn 0 1 0
vn 0 1 0
vn 0 -1 0
vn 0 -1 0
vn 0 -1 0
vn 0 -1 0

vt 0.4540963 0.453905
vt 0.02831499 0.453905
vt 0.4540963 0.9611291
vt 0.02831499 0.9611291
vt 0.2463881 0.2484794
vt 0.2463881 0.3121725
vt 0.7536122 0.2484794
vt 0.7536122 0.3121725
vt 0.9678597 0.4577303
vt 0.5420784 0.4577303
vt 0.9678597 0.9649544
vt 0.5420784 0.9649544
vt 0.2463881 0.1847862
vt 0.2463881 0.2484794
vt 0.7536122 0.1847862
vt 0.7536122 0.2484794
vt 0.5 0.113452
vt 0.9257813 0.113452
vt 0.5 0.04975885
vt 0.9257813 0.04975885
vt 0.5 0.04975885
vt 0.07421875 0.04975885
vt 0.5 0.113452
vt 0.07421875 0.113452

g Inside Wall
usemtl Default_Prototype
f 1/1/1 2/2/2 3/3/3
f 2/2/2 4/4/4 3/3/3
f 5/5/5 6/6/6 7/7/7
f 6/6/6 8/8/8 7/7/7
f 9/9/9 10/10/10 11/11/11
f 10/10/10 12/12/12 11/11/11
f 13/13/13 14/14/14 15/15/15
f 14/14/14 16/16/16 15/15/15
f 17/17/17 18/18/18 19/19/19
f 18/18/18 20/20/20 19/19/19
f 21/21/21 22/22/22 23/23/23
f 22/22/22 24/24/24 23/23/23

