# Exported from ProBuilder
# http://www.procore3d.com/probuilder
# 2/7/2019 6:31:47 AM

mtllib ./SideMotors.mtl
o SideMotors

g SideMotors
v 0.4955575 0 -0.2820613
v 1 0 -0.2820613
v 0.4955575 0.4270468 -0.2820613
v 1 0.4270468 -0.2820613
v 1 0 -0.2820613
v 1 0 -0.6743119
v 1 0.4270468 -0.2820613
v 1 0.4270468 -0.6743119
v 1 0 -0.6743119
v 0.4955575 0 -0.6743119
v 1 0.4270468 -0.6743119
v 0.4955575 0.4270468 -0.6743119
v 0.4955575 0 -0.6743119
v 0.4955575 0 -0.2820613
v 0.4955575 0.4270468 -0.6743119
v 0.4955575 0.4270468 -0.2820613
v 0.4955575 0.4270468 -0.2820613
v 1 0.4270468 -0.2820613
v 0.4955575 0.4270468 -0.6743119
v 1 0.4270468 -0.6743119
v 0.4955575 0 -0.6743119
v 1 0 -0.6743119
v 0.4955575 0 -0.2820613
v 1 0 -0.2820613

vn 0 0 1
vn 0 0 1
vn 0 0 1
vn 0 0 1
vn 1 0 0
vn 1 0 0
vn 1 0 0
vn 1 0 0
vn 0 0 -1
vn 0 0 -1
vn 0 0 -1
vn 0 0 -1
vn -1 0 0
vn -1 0 0
vn -1 0 0
vn -1 0 0
vn 0 1 0
vn 0 1 0
vn 0 1 0
vn 0 1 0
vn 0 -1 0
vn 0 -1 0
vn 0 -1 0
vn 0 -1 0

vt 0.2522212 0.597299
vt 0 0.597299
vt 0.2522212 0.8108224
vt 0 0.8108224
vt 0.3589693 0.3371559
vt 0.1628441 0.3371559
vt 0.3589693 0.5506793
vt 0.1628441 0.5506793
vt 1 0.6261902
vt 0.7477789 0.6261902
vt 1 0.8397136
vt 0.7477789 0.8397136
vt 0.8371559 0.3371559
vt 0.6410307 0.3371559
vt 0.8371559 0.5506793
vt 0.6410307 0.5506793
vt 0.7477788 0.1961253
vt 1 0.1961253
vt 0.7477788 0
vt 1 0
vt 0.2522212 0
vt 0 0
vt 0.2522212 0.1961253
vt 0 0.1961253

g SideMotors
usemtl Default_Prototype
f 1/1/1 2/2/2 3/3/3
f 2/2/2 4/4/4 3/3/3
f 5/5/5 6/6/6 7/7/7
f 6/6/6 8/8/8 7/7/7
f 9/9/9 10/10/10 11/11/11
f 10/10/10 12/12/12 11/11/11
f 13/13/13 14/14/14 15/15/15
f 14/14/14 16/16/16 15/15/15
f 17/17/17 18/18/18 19/19/19
f 18/18/18 20/20/20 19/19/19
f 21/21/21 22/22/22 23/23/23
f 22/22/22 24/24/24 23/23/23

