# Exported from ProBuilder
# http://www.procore3d.com/probuilder
# 2/16/2019 7:20:39 AM

mtllib ./Wire.mtl
o Wire

g New Game Object
v -0.03649897 -2.346933E-07 0.04130698
v -0.04575581 -2.235174E-07 0.1196292
v 0.0124873 -2.365559E-07 0.01582456
v -0.004515649 -6.854534E-07 0.2309385
v -0.05046399 -2.235174E-07 0.1778522
v -0.04165054 -2.086163E-07 0.288872
v 0.0001177788 -2.086163E-07 0.373972
v -0.04179168 -2.086163E-07 0.3445134
v -0.04664505 -1.788139E-07 0.4344962
v -0.01834822 -1.788139E-07 0.5552493
v -0.06064625 -1.788139E-07 0.484448
v -0.06546785 -1.788139E-07 0.5403972
v -0.1069189 -1.788139E-07 0.5940662
v -0.07597084 -1.788139E-07 0.6580899
v -0.1702835 -1.788139E-07 0.6383319
v -0.2153427 -1.788139E-07 0.724418
v -0.2490387 -1.788139E-07 0.65235
v -0.3085203 -1.788139E-07 0.6526189
v -0.369258 -1.788139E-07 0.7044011
v -0.3619597 -1.788139E-07 0.6371391
v -0.4268716 -1.788139E-07 0.6329744
v -0.3850496 -1.788139E-07 0.5784777
v -0.4413743 -1.788139E-07 0.5668622
v -0.4118367 -1.788139E-07 0.5282236
v -0.05978826 0.1079137 0.1848005
v -0.07273866 0.1079137 0.157464
v -0.3682081 -2.086163E-07 0.3408246
v -0.05978826 0.1079137 0.1848005
v -0.3682081 -2.086163E-07 0.3408246
v -0.331867 -1.788139E-07 0.4138613
v -0.3693336 -1.788139E-07 0.4177993
v -0.4371747 2.980232E-08 0.3635364
v -0.4097381 -1.788139E-07 0.4435206
v -0.4491857 -1.788139E-07 0.4398122
v -0.410735 -1.788139E-07 0.4837471
v -0.4502871 -1.788139E-07 0.491854
v -0.4413744 -0.1284013 0.5668622
v -0.4502871 -0.1284013 0.491854
v -0.4118367 -0.1284013 0.5282236
v -0.410735 -0.1284013 0.4837471
v -0.4491858 -0.1284013 0.4398122
v -0.4097382 -0.1284013 0.4435206
v -0.4371748 -0.1284011 0.3635364
v -0.3693337 -0.1284013 0.4177993
v -0.3682082 -0.1284014 0.3408246
v -0.331867 -0.1284013 0.4138613
v -0.331867 -0.1284013 0.4138613
v -0.3682082 -0.1284014 0.3408246
v -0.05978828 0.05572319 0.1848005
v -0.07273866 0.05572319 0.157464
v -0.3850497 -0.1284013 0.5784777
v -0.4268716 -0.1284013 0.6329744
v -0.3619597 -0.1284013 0.6371391
v -0.369258 -0.1284013 0.7044011
v -0.3085203 -0.1284013 0.6526189
v -0.2153427 -0.1284013 0.724418
v -0.2490387 -0.1284013 0.65235
v -0.1702835 -0.1284013 0.6383319
v -0.07597087 -0.1284013 0.6580899
v -0.1069189 -0.1284013 0.5940662
v -0.01834824 -0.1284013 0.5552493
v -0.06546787 -0.1284013 0.5403972
v -0.06064627 -0.1284013 0.484448
v -0.04664508 -0.1284013 0.4344962
v 0.0001177569 -0.1284014 0.373972
v -0.04179171 -0.1284014 0.3445134
v -0.04165056 -0.1284014 0.288872
v -0.004515671 -0.1284018 0.2309385
v -0.05046401 -0.1284014 0.1778522
v -0.04575583 -0.1284014 0.1196292
v 0.01248727 -0.1284014 0.01582457
v -0.03649899 -0.1284014 0.04130699
v -0.03649899 -0.1284014 0.04130699
v -0.04575583 -0.1284014 0.1196292
v -0.04575581 -2.235174E-07 0.1196292
v -0.03649897 -2.346933E-07 0.04130698
v 0.01248727 -0.1284014 0.01582457
v -0.03649899 -0.1284014 0.04130699
v -0.03649897 -2.346933E-07 0.04130698
v 0.0124873 -2.365559E-07 0.01582456
v -0.004515671 -0.1284018 0.2309385
v 0.01248727 -0.1284014 0.01582457
v 0.0124873 -2.365559E-07 0.01582456
v -0.004515649 -6.854534E-07 0.2309385
v -0.04575583 -0.1284014 0.1196292
v -0.05046401 -0.1284014 0.1778522
v -0.05046399 -2.235174E-07 0.1778522
v -0.04575581 -2.235174E-07 0.1196292
v -0.05046401 -0.1284014 0.1778522
v -0.04165056 -0.1284014 0.288872
v -0.04165054 -2.086163E-07 0.288872
v -0.05046399 -2.235174E-07 0.1778522
v 0.0001177569 -0.1284014 0.373972
v -0.004515671 -0.1284018 0.2309385
v -0.004515649 -6.854534E-07 0.2309385
v 0.0001177788 -2.086163E-07 0.373972
v -0.04165056 -0.1284014 0.288872
v -0.04179171 -0.1284014 0.3445134
v -0.04179168 -2.086163E-07 0.3445134
v -0.04165054 -2.086163E-07 0.288872
v -0.04179171 -0.1284014 0.3445134
v -0.04664508 -0.1284013 0.4344962
v -0.04664505 -1.788139E-07 0.4344962
v -0.04179168 -2.086163E-07 0.3445134
v -0.01834824 -0.1284013 0.5552493
v 0.0001177569 -0.1284014 0.373972
v 0.0001177788 -2.086163E-07 0.373972
v -0.01834822 -1.788139E-07 0.5552493
v -0.04664508 -0.1284013 0.4344962
v -0.06064627 -0.1284013 0.484448
v -0.06064625 -1.788139E-07 0.484448
v -0.04664505 -1.788139E-07 0.4344962
v -0.06064627 -0.1284013 0.484448
v -0.06546787 -0.1284013 0.5403972
v -0.06546785 -1.788139E-07 0.5403972
v -0.06064625 -1.788139E-07 0.484448
v -0.06546787 -0.1284013 0.5403972
v -0.1069189 -0.1284013 0.5940662
v -0.1069189 -1.788139E-07 0.5940662
v -0.06546785 -1.788139E-07 0.5403972
v -0.07597087 -0.1284013 0.6580899
v -0.01834824 -0.1284013 0.5552493
v -0.01834822 -1.788139E-07 0.5552493
v -0.07597084 -1.788139E-07 0.6580899
v -0.1069189 -0.1284013 0.5940662
v -0.1702835 -0.1284013 0.6383319
v -0.1702835 -1.788139E-07 0.6383319
v -0.1069189 -1.788139E-07 0.5940662
v -0.2153427 -0.1284013 0.724418
v -0.07597087 -0.1284013 0.6580899
v -0.07597084 -1.788139E-07 0.6580899
v -0.2153427 -1.788139E-07 0.724418
v -0.1702835 -0.1284013 0.6383319
v -0.2490387 -0.1284013 0.65235
v -0.2490387 -1.788139E-07 0.65235
v -0.1702835 -1.788139E-07 0.6383319
v -0.2490387 -0.1284013 0.65235
v -0.3085203 -0.1284013 0.6526189
v -0.3085203 -1.788139E-07 0.6526189
v -0.2490387 -1.788139E-07 0.65235
v -0.369258 -0.1284013 0.7044011
v -0.2153427 -0.1284013 0.724418
v -0.2153427 -1.788139E-07 0.724418
v -0.369258 -1.788139E-07 0.7044011
v -0.3085203 -0.1284013 0.6526189
v -0.3619597 -0.1284013 0.6371391
v -0.3619597 -1.788139E-07 0.6371391
v -0.3085203 -1.788139E-07 0.6526189
v -0.4268716 -0.1284013 0.6329744
v -0.369258 -0.1284013 0.7044011
v -0.369258 -1.788139E-07 0.7044011
v -0.4268716 -1.788139E-07 0.6329744
v -0.3619597 -0.1284013 0.6371391
v -0.3850497 -0.1284013 0.5784777
v -0.3850496 -1.788139E-07 0.5784777
v -0.3619597 -1.788139E-07 0.6371391
v -0.4413744 -0.1284013 0.5668622
v -0.4268716 -0.1284013 0.6329744
v -0.4268716 -1.788139E-07 0.6329744
v -0.4413743 -1.788139E-07 0.5668622
v -0.3850497 -0.1284013 0.5784777
v -0.4118367 -0.1284013 0.5282236
v -0.4118367 -1.788139E-07 0.5282236
v -0.3850496 -1.788139E-07 0.5784777
v -0.05978828 0.05572319 0.1848005
v -0.07273866 0.05572319 0.157464
v -0.07273866 0.1079137 0.157464
v -0.05978826 0.1079137 0.1848005
v -0.07273866 0.05572319 0.157464
v -0.3682082 -0.1284014 0.3408246
v -0.3682081 -2.086163E-07 0.3408246
v -0.07273866 0.1079137 0.157464
v -0.331867 -0.1284013 0.4138613
v -0.05978828 0.05572319 0.1848005
v -0.05978826 0.1079137 0.1848005
v -0.331867 -1.788139E-07 0.4138613
v -0.3693337 -0.1284013 0.4177993
v -0.331867 -0.1284013 0.4138613
v -0.331867 -1.788139E-07 0.4138613
v -0.3693336 -1.788139E-07 0.4177993
v -0.3682082 -0.1284014 0.3408246
v -0.4371748 -0.1284011 0.3635364
v -0.4371747 2.980232E-08 0.3635364
v -0.3682081 -2.086163E-07 0.3408246
v -0.4097382 -0.1284013 0.4435206
v -0.3693337 -0.1284013 0.4177993
v -0.3693336 -1.788139E-07 0.4177993
v -0.4097381 -1.788139E-07 0.4435206
v -0.4371748 -0.1284011 0.3635364
v -0.4491858 -0.1284013 0.4398122
v -0.4491857 -1.788139E-07 0.4398122
v -0.4371747 2.980232E-08 0.3635364
v -0.410735 -0.1284013 0.4837471
v -0.4097382 -0.1284013 0.4435206
v -0.4097381 -1.788139E-07 0.4435206
v -0.410735 -1.788139E-07 0.4837471
v -0.4491858 -0.1284013 0.4398122
v -0.4502871 -0.1284013 0.491854
v -0.4502871 -1.788139E-07 0.491854
v -0.4491857 -1.788139E-07 0.4398122
v -0.4118367 -0.1284013 0.5282236
v -0.4118367 -1.788139E-07 0.5282236
v -0.4502871 -0.1284013 0.491854
v -0.4413744 -0.1284013 0.5668622
v -0.4413743 -1.788139E-07 0.5668622
v -0.4502871 -1.788139E-07 0.491854

vn -3.857499E-08 1 -1.472501E-07
vn 4.404805E-06 1 1.620106E-06
vn 3.429472E-06 0.9999999 1.798616E-06
vn 7.068403E-06 1 1.618724E-07
vn 1.04479E-05 1 -3.414774E-07
vn 7.383177E-06 1 -1.966051E-06
vn 2.34792E-06 1 -1.146928E-06
vn 1.404655E-07 1 -1.998347E-07
vn 3.113616E-07 1 -1.455251E-07
vn 1.551982E-07 1 -3.636858E-08
vn 0 1 0
vn 0 1 0
vn 0 1 0
vn 0 1 0
vn 0 1 0
vn 0 1 0
vn 0 1 0
vn 0 1 0
vn 0 1 0
vn 0 1 0
vn 0 0.9999999 0
vn 0 1 0
vn 0 1 0
vn 0 0.9999999 0
vn -0.2675287 0.9545513 0.1313786
vn -0.2694156 0.9545287 0.1276332
vn -0.2240685 0.9683416 0.1100361
vn -0.2675287 0.9545513 0.1313786
vn -0.2240685 0.9683416 0.1100361
vn -0.2440261 0.9621374 0.1214207
vn 1.894518E-06 1 4.566421E-07
vn 1.81421E-06 1 1.211621E-06
vn 5.351409E-07 1 1.941227E-06
vn -1.155801E-07 1 1.22948E-06
vn 0 1 0
vn 0 1 0
vn 0 -1 0
vn 0 -1 0
vn 0 -0.9999999 0
vn 0 -1 0
vn 1.155801E-07 -1 -1.22948E-06
vn -5.351408E-07 -1 -1.941227E-06
vn -1.81421E-06 -1 -1.211621E-06
vn -1.894518E-06 -1 -4.566421E-07
vn 0.3613947 -0.915367 -0.1774745
vn 0.3896191 -0.9003409 -0.1938639
vn 0.3896191 -0.9003409 -0.1938639
vn 0.3613947 -0.915367 -0.1774745
vn 0.4220401 -0.8825684 -0.2072562
vn 0.425002 -0.8825165 -0.2013398
vn 0 -1 0
vn 0 -0.9999999 0
vn 0 -1 0
vn 0 -1 0
vn 0 -1 0
vn 0 -1 0
vn 0 -1 0
vn 0 -1 0
vn 0 -1 0
vn 0 -0.9999999 0
vn -1.551982E-07 -1 3.636858E-08
vn 0 -1 0
vn 0 -1 0
vn -3.113616E-07 -1 1.455251E-07
vn -2.34792E-06 -1 1.146928E-06
vn -1.404655E-07 -1 1.998347E-07
vn -7.383177E-06 -1 1.966051E-06
vn -7.077076E-06 -1 -1.586587E-07
vn -1.04479E-05 -0.9999999 3.414774E-07
vn -4.402868E-06 -1 -1.604112E-06
vn -3.427141E-06 -0.9999999 -1.779364E-06
vn 1.05453E-07 -1 2.027181E-07
vn -0.993088 1.618006E-07 -0.1173723
vn -0.993088 1.60943E-07 -0.1173723
vn -0.993088 1.618006E-07 -0.1173723
vn -0.993088 1.626582E-07 -0.1173723
vn -0.4614889 -4.875277E-09 -0.8871459
vn -0.4614889 0 -0.8871459
vn -0.4614889 -4.875277E-09 -0.8871459
vn -0.4614891 -9.750557E-09 -0.887146
vn 0.9968908 -1.644213E-07 0.07879582
vn 0.9968908 -1.680662E-07 0.07879582
vn 0.9968908 -1.644213E-07 0.07879582
vn 0.9968907 -1.607764E-07 0.07879582
vn -0.9967464 1.63566E-07 -0.08060146
vn -0.9967464 1.629748E-07 -0.08060146
vn -0.9967464 1.63566E-07 -0.08060146
vn -0.9967464 1.641571E-07 -0.08060146
vn -0.9968637 1.76838E-07 0.07913726
vn -0.9968638 1.709605E-07 0.07913727
vn -0.9968637 1.76838E-07 0.07913726
vn -0.9968637 1.827155E-07 0.07913724
vn 0.9994757 -1.722928E-07 -0.03237702
vn 0.9994757 -1.742242E-07 -0.03237702
vn 0.9994757 -1.722928E-07 -0.03237702
vn 0.9994757 -1.703614E-07 -0.03237702
vn -0.9999968 1.740486E-07 -0.00253666
vn -0.9999968 1.740204E-07 -0.00253666
vn -0.9999968 1.740486E-07 -0.00253666
vn -0.9999968 1.740769E-07 -0.00253666
vn -0.9985486 1.736905E-07 -0.05385835
vn -0.9985486 1.735562E-07 -0.05385835
vn -0.9985486 1.736905E-07 -0.05385835
vn -0.9985486 1.738248E-07 -0.05385834
vn 0.9948516 -1.711779E-07 0.1013416
vn 0.9948516 -1.691745E-07 0.1013416
vn 0.9948516 -1.711779E-07 0.1013416
vn 0.9948517 -1.731812E-07 0.1013416
vn -0.9628904 1.711938E-07 -0.2698926
vn -0.9628904 1.747701E-07 -0.2698926
vn -0.9628904 1.711938E-07 -0.2698926
vn -0.9628904 1.676175E-07 -0.2698926
vn -0.9963073 1.734972E-07 -0.0858599
vn -0.9963073 1.735597E-07 -0.0858599
vn -0.9963073 1.734972E-07 -0.0858599
vn -0.9963073 1.734346E-07 -0.0858599
vn -0.7914308 1.35735E-07 -0.6112589
vn -0.7914308 1.336998E-07 -0.6112589
vn -0.7914308 1.35735E-07 -0.6112589
vn -0.7914308 1.377702E-07 -0.6112589
vn 0.8723908 -1.528426E-07 0.488809
vn 0.8723908 -1.538216E-07 0.488809
vn 0.8723908 -1.528426E-07 0.488809
vn 0.8723908 -1.518635E-07 0.488809
vn -0.5726851 8.503506E-08 -0.8197756
vn -0.5726851 7.037858E-08 -0.8197755
vn -0.5726851 8.503506E-08 -0.8197756
vn -0.5726851 9.969154E-08 -0.8197756
vn 0.4297249 -7.19272E-08 0.9029598
vn 0.429725 -9.398414E-08 0.9029599
vn 0.4297249 -7.19272E-08 0.9029598
vn 0.4297249 -4.987027E-08 0.9029598
vn -0.175241 1.583558E-08 -0.9845255
vn -0.175241 1.133415E-08 -0.9845255
vn -0.175241 1.583558E-08 -0.9845255
vn -0.175241 2.0337E-08 -0.9845255
vn -0.004521289 7.386775E-10 -0.9999897
vn -0.004521288 9.52652E-10 -0.9999897
vn -0.004521289 7.386775E-10 -0.9999897
vn -0.00452129 5.24703E-10 -0.9999897
vn -0.1289654 2.664946E-08 0.9916492
vn -0.1289654 2.336563E-08 0.9916492
vn -0.1289654 2.664946E-08 0.9916492
vn -0.1289654 2.993329E-08 0.9916491
vn 0.2782322 -6.488145E-08 -0.9605138
vn 0.2782322 -6.518432E-08 -0.9605138
vn 0.2782322 -6.488145E-08 -0.9605138
vn 0.2782322 -6.457859E-08 -0.9605138
vn -0.7783518 1.89129E-07 0.6278283
vn -0.7783518 1.976E-07 0.6278283
vn -0.7783518 1.89129E-07 0.6278283
vn -0.7783518 1.80658E-07 0.6278283
vn 0.9305115 -2.158501E-07 -0.3662624
vn 0.9305115 -2.157254E-07 -0.3662624
vn 0.9305115 -2.158501E-07 -0.3662624
vn 0.9305115 -2.159747E-07 -0.3662624
vn -0.9767744 2.272165E-07 0.2142703
vn -0.9767744 2.277206E-07 0.2142703
vn -0.9767744 2.272165E-07 0.2142703
vn -0.9767744 2.267125E-07 0.2142703
vn 0.8824636 -2.058969E-07 -0.4703807
vn 0.8824636 -2.069711E-07 -0.4703807
vn 0.8824636 -2.058969E-07 -0.4703807
vn 0.8824636 -2.048226E-07 -0.4703807
vn 0.9037182 -1.935185E-07 -0.4281278
vn 0.9037184 0 -0.4281275
vn 0.9037182 -1.935185E-07 -0.4281278
vn 0.903718 -3.870369E-07 -0.4281281
vn -0.5272918 1.779625E-07 -0.8496843
vn -0.5272918 2.50298E-07 -0.8496843
vn -0.5272918 1.779625E-07 -0.8496843
vn -0.5272918 0 -0.8496842
vn 0.6440402 -2.222824E-07 0.7649916
vn 0.6440404 -4.013844E-07 0.7649916
vn 0.6440402 -2.222824E-07 0.7649916
vn 0.6440402 -1.494838E-07 0.7649917
vn 0.1045299 -2.416406E-08 0.9945217
vn 0.1045299 -2.406637E-08 0.9945217
vn 0.1045299 -2.416406E-08 0.9945217
vn 0.1045299 -2.426174E-08 0.9945217
vn -0.3127909 7.375972E-08 -0.949822
vn -0.3127909 7.491968E-08 -0.949822
vn -0.3127909 7.375972E-08 -0.949822
vn -0.3127909 7.259977E-08 -0.949822
vn 0.5370145 -1.285739E-07 0.843573
vn 0.5370145 -1.32505E-07 0.843573
vn 0.5370145 -1.285739E-07 0.843573
vn 0.5370145 -1.246428E-07 0.843573
vn -0.9878279 2.291218E-07 -0.1555511
vn -0.9878279 2.289655E-07 -0.1555511
vn -0.9878279 2.291218E-07 -0.1555511
vn -0.9878279 2.29278E-07 -0.1555511
vn 0.9996931 -2.318436E-07 0.02477281
vn 0.9996931 -2.316552E-07 0.02477281
vn 0.9996931 -2.318436E-07 0.02477281
vn 0.9996931 -2.32032E-07 0.02477281
vn -0.9997761 2.319625E-07 -0.02115854
vn -0.9997761 2.318737E-07 -0.02115854
vn -0.9997761 2.319625E-07 -0.02115854
vn -0.9997761 2.320512E-07 -0.02115854
vn 0.9996934 -2.322385E-07 0.02476284
vn 0.9996934 -2.32032E-07 0.02476284
vn -0.9930144 2.29269E-07 0.117994
vn -0.9930144 2.280562E-07 0.117994
vn -0.9930144 2.29269E-07 0.117994
vn -0.9930144 2.304818E-07 0.117994

vt -0.03649737 0.04125611
vt -0.0457538 0.1195055
vt 0.01248674 0.01581552
vt -0.004515457 0.2307328
vt -0.05046177 0.1776752
vt -0.04164871 0.2886005
vt 0.0001177717 0.3736418
vt -0.04178984 0.3441927
vt -0.046643 0.4340941
vt -0.01834741 0.5547517
vt -0.06064358 0.4839963
vt -0.06546497 0.5398942
vt -0.1069142 0.5934994
vt -0.0759675 0.6574788
vt -0.170276 0.637701
vt -0.2153332 0.7236933
vt -0.2490277 0.6516757
vt -0.3085067 0.6519209
vt -0.3692417 0.7036334
vt -0.3619437 0.6364337
vt -0.4268528 0.6322471
vt -0.3850327 0.5778149
vt -0.4413549 0.5661875
vt -0.4118185 0.5275947
vt -0.05877279 0.1800796
vt -0.07172263 0.1527621
vt -0.3681919 0.3403784
vt -0.05877279 0.1800796
vt -0.3681919 0.3403784
vt -0.3318524 0.4133649
vt -0.3693174 0.4172847
vt -0.4371555 0.3630429
vt -0.4097201 0.4429673
vt -0.4491659 0.4392467
vt -0.4107169 0.4831579
vt -0.4502673 0.4912421
vt 0.4433738 0.5740908
vt 0.4522854 0.4992648
vt 0.4138399 0.5355852
vt 0.4127384 0.491224
vt 0.4511842 0.4473577
vt 0.4117416 0.4511018
vt 0.4391747 0.3712912
vt 0.3713423 0.4254927
vt 0.370217 0.3487167
vt 0.3338805 0.4216078
vt 0.3338805 0.4216078
vt 0.370217 0.3487167
vt 0.05888835 0.1802708
vt 0.07183707 0.1529896
vt 0.3870563 0.5857411
vt 0.4288729 0.6400502
vt 0.3639693 0.6442786
vt 0.3712667 0.7113597
vt 0.3105368 0.65978
vt 0.2173711 0.7315017
vt 0.2510628 0.6595799
vt 0.1723177 0.645688
vt 0.07801715 0.6655034
vt 0.1089612 0.6016084
vt 0.02040192 0.5629925
vt 0.06751551 0.5481245
vt 0.06269453 0.4923243
vt 0.04869512 0.4425166
vt 0.001938289 0.3822012
vt 0.04384238 0.3527701
vt 0.04370125 0.2972716
vt 0.00657113 0.2395291
vt 0.05251357 0.1865263
vt 0.047806 0.128458
vt -0.01042964 0.02498627
vt 0.03855034 0.05034722
vt -0.04530545 -0.1284014
vt -0.1241728 -0.1284014
vt -0.1241727 -2.285177E-07
vt -0.04530543 -2.396936E-07
vt 0.003775169 -0.1284014
vt -0.05144265 -0.1284014
vt -0.05144263 -2.346315E-07
vt 0.003775195 -2.364942E-07
vt 0.2305763 -0.1284018
vt 0.01479142 -0.1284014
vt 0.01479141 -2.343045E-07
vt 0.2305762 -6.83202E-07
vt -0.1229279 -0.1284014
vt -0.181341 -0.1284014
vt -0.181341 -2.294213E-07
vt -0.1229279 -2.294213E-07
vt -0.1733008 -0.1284014
vt -0.28467 -0.1284014
vt -0.28467 -2.197883E-07
vt -0.1733008 -2.346895E-07
vt 0.3737797 -0.1284014
vt 0.2306712 -0.1284018
vt 0.2306712 -6.875412E-07
vt 0.3737797 -2.10704E-07
vt -0.2889768 -0.1284014
vt -0.3446184 -0.1284014
vt -0.3446184 -2.157391E-07
vt -0.2889768 -2.157391E-07
vt -0.3462643 -0.1284014
vt -0.4363778 -0.1284013
vt -0.4363778 -1.828425E-07
vt -0.3462643 -2.126448E-07
vt 0.5542501 -0.1284013
vt 0.3720347 -0.1284014
vt 0.3720347 -2.020326E-07
vt 0.5542501 -1.722303E-07
vt -0.4309614 -0.1284013
vt -0.4828383 -0.1284013
vt -0.4828383 -1.666863E-07
vt -0.4309614 -1.666863E-07
vt -0.4878662 -0.1284013
vt -0.5440227 -0.1284013
vt -0.5440227 -1.820793E-07
vt -0.4878662 -1.820793E-07
vt -0.4677048 -0.1284013
vt -0.5355174 -0.1284013
vt -0.5355174 -1.404436E-07
vt -0.4677048 -1.404436E-07
vt 0.6112469 -0.1284013
vt 0.4933631 -0.1284013
vt 0.4933631 -1.400274E-07
vt 0.6112468 -1.400274E-07
vt -0.4278623 -0.1284013
vt -0.5051575 -0.1284013
vt -0.5051574 -1.505168E-07
vt -0.4278623 -1.505168E-07
vt 0.5057464 -0.1284013
vt 0.3513963 -0.1284013
vt 0.3513963 -1.228014E-07
vt 0.5057463 -1.228014E-07
vt -0.2795104 -0.1284013
vt -0.3595035 -0.1284013
vt -0.3595034 -1.666399E-07
vt -0.2795104 -1.666399E-07
vt -0.2519856 -0.1284013
vt -0.3114678 -0.1284013
vt -0.3114678 -1.781305E-07
vt -0.2519856 -1.781305E-07
vt 0.275331 -0.1284014
vt 0.1201196 -0.1284014
vt 0.1201195 -1.899812E-07
vt 0.275331 -1.899812E-07
vt -0.1147584 -0.1284014
vt -0.1703947 -0.1284014
vt -0.1703946 -2.248384E-07
vt -0.1147584 -2.248384E-07
vt -0.2246747 -0.1284015
vt -0.3164413 -0.1284015
vt -0.3164413 -3.10632E-07
vt -0.2246748 -3.10632E-07
vt 0.4602931 -0.1284015
vt 0.397251 -0.1284015
vt 0.397251 -3.019558E-07
vt 0.4602932 -3.019558E-07
vt -0.459123 -0.1284015
vt -0.5268074 -0.1284015
vt -0.5268074 -3.040918E-07
vt -0.4591231 -3.040918E-07
vt 0.3293656 -0.1284015
vt 0.272418 -0.1284015
vt 0.2724181 -3.041443E-07
vt 0.3293656 -3.041443E-07
vt 0.1414106 0.05572319
vt 0.1111617 0.05572319
vt 0.1111617 0.1079137
vt 0.1414106 0.1079137
vt -0.1448344 0.05572321
vt -0.4925747 -0.1284013
vt -0.4925747 -1.852551E-07
vt -0.1448344 0.1079138
vt 0.5204188 -0.1284013
vt 0.1647565 0.05572322
vt 0.1647565 0.1079138
vt 0.5204188 -1.409838E-07
vt 0.4109829 -0.1284013
vt 0.3733099 -0.1284013
vt 0.3733098 -1.696696E-07
vt 0.4109828 -1.696696E-07
vt -0.4563391 -0.1284014
vt -0.5289491 -0.1284011
vt -0.528949 4.494305E-08
vt -0.456339 -1.934755E-07
vt 0.5838211 -0.1284013
vt 0.5359242 -0.1284013
vt 0.5359241 -1.596056E-07
vt 0.583821 -1.596056E-07
vt -0.4271144 -0.1284012
vt -0.5043301 -0.1284014
vt -0.5043301 -2.648631E-07
vt -0.4271144 -5.624684E-08
vt 0.4937737 -0.1284014
vt 0.4535348 -0.1284014
vt 0.4535348 -2.713077E-07
vt 0.4937737 -2.713077E-07
vt -0.4492179 -0.1284014
vt -0.5012713 -0.1284014
vt -0.5012713 -2.808653E-07
vt -0.4492179 -2.808653E-07
vt 0.5382599 -0.1284014
vt 0.5382599 -2.713089E-07
vt -0.4352869 -0.1284015
vt -0.5108227 -0.1284015
vt -0.5108227 -2.952481E-07
vt -0.4352869 -2.952481E-07

g New Game Object
usemtl Default_Prototype
f 1/1/1 2/2/2 3/3/3
f 3/3/3 2/2/2 4/4/4
f 4/4/4 2/2/2 5/5/5
f 4/4/4 5/5/5 6/6/6
f 7/7/7 4/4/4 6/6/6
f 7/7/7 6/6/6 8/8/8
f 7/7/7 8/8/8 9/9/9
f 7/7/7 9/9/9 10/10/10
f 10/10/10 9/9/9 11/11/11
f 10/10/10 11/11/11 12/12/12
f 12/12/12 13/13/13 10/10/10
f 13/13/13 14/14/14 10/10/10
f 14/14/14 13/13/13 15/15/15
f 14/14/14 15/15/15 16/16/16
f 15/15/15 17/17/17 16/16/16
f 16/16/16 17/17/17 18/18/18
f 16/16/16 18/18/18 19/19/19
f 18/18/18 20/20/20 19/19/19
f 20/20/20 21/21/21 19/19/19
f 20/20/20 22/22/22 21/21/21
f 22/22/22 23/23/23 21/21/21
f 22/22/22 24/24/24 23/23/23
f 25/25/25 26/26/26 27/27/27
f 28/28/28 29/29/29 30/30/30
f 30/30/30 29/29/29 31/31/31
f 29/29/29 32/32/32 31/31/31
f 32/32/32 33/33/33 31/31/31
f 32/32/32 34/34/34 33/33/33
f 33/33/33 34/34/34 35/35/35
f 35/35/35 34/34/34 36/36/36
f 35/35/35 36/36/36 24/24/24
f 24/24/24 36/36/36 23/23/23
f 37/37/37 38/38/38 39/39/39
f 39/39/39 38/38/38 40/40/40
f 38/38/38 41/41/41 40/40/40
f 40/40/40 41/41/41 42/42/42
f 42/42/42 41/41/41 43/43/43
f 44/44/44 42/42/42 43/43/43
f 44/44/44 43/43/43 45/45/45
f 44/44/44 45/45/45 46/46/46
f 47/47/47 48/48/48 49/49/49
f 48/48/48 50/50/50 49/49/49
f 37/37/37 39/39/39 51/51/51
f 52/52/52 37/37/37 51/51/51
f 52/52/52 51/51/51 53/53/53
f 54/54/54 52/52/52 53/53/53
f 54/54/54 53/53/53 55/55/55
f 54/54/54 55/55/55 56/56/56
f 55/55/55 57/57/57 56/56/56
f 56/56/56 57/57/57 58/58/58
f 56/56/56 58/58/58 59/59/59
f 58/58/58 60/60/60 59/59/59
f 61/61/61 59/59/59 60/60/60
f 61/61/61 60/60/60 62/62/62
f 62/62/62 63/63/63 61/61/61
f 63/63/63 64/64/64 61/61/61
f 61/61/61 64/64/64 65/65/65
f 64/64/64 66/66/66 65/65/65
f 66/66/66 67/67/67 65/65/65
f 67/67/67 68/68/68 65/65/65
f 67/67/67 69/69/69 68/68/68
f 69/69/69 70/70/70 68/68/68
f 68/68/68 70/70/70 71/71/71
f 71/71/71 70/70/70 72/72/72
f 73/73/73 74/74/74 75/75/75
f 73/73/73 75/75/75 76/76/76
f 77/77/77 78/78/78 79/79/79
f 77/77/77 79/79/79 80/80/80
f 81/81/81 82/82/82 83/83/83
f 81/81/81 83/83/83 84/84/84
f 85/85/85 86/86/86 87/87/87
f 85/85/85 87/87/87 88/88/88
f 89/89/89 90/90/90 91/91/91
f 89/89/89 91/91/91 92/92/92
f 93/93/93 94/94/94 95/95/95
f 93/93/93 95/95/95 96/96/96
f 97/97/97 98/98/98 99/99/99
f 97/97/97 99/99/99 100/100/100
f 101/101/101 102/102/102 103/103/103
f 101/101/101 103/103/103 104/104/104
f 105/105/105 106/106/106 107/107/107
f 105/105/105 107/107/107 108/108/108
f 109/109/109 110/110/110 111/111/111
f 109/109/109 111/111/111 112/112/112
f 113/113/113 114/114/114 115/115/115
f 113/113/113 115/115/115 116/116/116
f 117/117/117 118/118/118 119/119/119
f 117/117/117 119/119/119 120/120/120
f 121/121/121 122/122/122 123/123/123
f 121/121/121 123/123/123 124/124/124
f 125/125/125 126/126/126 127/127/127
f 125/125/125 127/127/127 128/128/128
f 129/129/129 130/130/130 131/131/131
f 129/129/129 131/131/131 132/132/132
f 133/133/133 134/134/134 135/135/135
f 133/133/133 135/135/135 136/136/136
f 137/137/137 138/138/138 139/139/139
f 137/137/137 139/139/139 140/140/140
f 141/141/141 142/142/142 143/143/143
f 141/141/141 143/143/143 144/144/144
f 145/145/145 146/146/146 147/147/147
f 145/145/145 147/147/147 148/148/148
f 149/149/149 150/150/150 151/151/151
f 149/149/149 151/151/151 152/152/152
f 153/153/153 154/154/154 155/155/155
f 153/153/153 155/155/155 156/156/156
f 157/157/157 158/158/158 159/159/159
f 157/157/157 159/159/159 160/160/160
f 161/161/161 162/162/162 163/163/163
f 161/161/161 163/163/163 164/164/164
f 165/165/165 166/166/166 167/167/167
f 165/165/165 167/167/167 168/168/168
f 169/169/169 170/170/170 171/171/171
f 169/169/169 171/171/171 172/172/172
f 173/173/173 174/174/174 175/175/175
f 173/173/173 175/175/175 176/176/176
f 177/177/177 178/178/178 179/179/179
f 177/177/177 179/179/179 180/180/180
f 181/181/181 182/182/182 183/183/183
f 181/181/181 183/183/183 184/184/184
f 185/185/185 186/186/186 187/187/187
f 185/185/185 187/187/187 188/188/188
f 189/189/189 190/190/190 191/191/191
f 189/189/189 191/191/191 192/192/192
f 193/193/193 194/194/194 195/195/195
f 193/193/193 195/195/195 196/196/196
f 197/197/197 198/198/198 199/199/199
f 197/197/197 199/199/199 200/200/200
f 201/201/201 193/193/193 196/196/196
f 201/201/201 196/196/196 202/202/202
f 203/203/203 204/204/204 205/205/205
f 203/203/203 205/205/205 206/206/206

