# Exported from ProBuilder
# http://www.procore3d.com/probuilder
# 2/6/2019 5:47:01 AM

mtllib ./ClawHeadTop.mtl
o ClawHeadTop

g ClawHeadTop
v -0.1168322 -0.5820635 0.1207018
v 0.1168318 -0.5820635 0.1207018
v -0.1168322 -2.980232E-07 0.1207018
v 0.1168318 -2.980232E-07 0.1207018
v 0.1168318 -0.5820635 0.1207018
v 0.1168318 -0.5820635 -0.1207017
v 0.1168318 -2.980232E-07 0.1207018
v 0.1168318 -2.980232E-07 -0.1207017
v 0.1168318 -0.5820635 -0.1207017
v -0.1168322 -0.5820635 -0.1207017
v 0.1168318 -2.980232E-07 -0.1207017
v -0.1168322 -2.980232E-07 -0.1207017
v -0.1168322 -0.5820635 -0.1207017
v -0.1168322 -0.5820635 0.1207018
v -0.1168322 -2.980232E-07 -0.1207017
v -0.1168322 -2.980232E-07 0.1207018
v -0.1168322 -2.980232E-07 0.1207018
v 0.1168318 -2.980232E-07 0.1207018
v -0.1168322 -2.980232E-07 -0.1207017
v 0.1168318 -2.980232E-07 -0.1207017
v -0.1168322 -0.5820635 -0.1207017
v 0.1168318 -0.5820635 -0.1207017
v -0.1168322 -0.5820635 0.1207018
v 0.1168318 -0.5820635 0.1207018

vn 0 0 1
vn 0 0 1
vn 0 0 1
vn 0 0 1
vn 0.9999999 0 0
vn 0.9999999 0 0
vn 0.9999999 0 0
vn 0.9999999 0 0
vn 0 0 -1
vn 0 0 -1
vn 0 0 -1
vn 0 0 -1
vn -0.9999999 0 0
vn -0.9999999 0 0
vn -0.9999999 0 0
vn -0.9999999 0 0
vn 0 1 0
vn 0 1 0
vn 0 1 0
vn 0 1 0
vn 0 -1 0
vn 0 -1 0
vn 0 -1 0
vn 0 -1 0

vt 0.3379991 0
vt 0.005506811 0
vt 0.3379991 0.828247
vt 0.005506811 0.828247
vt 0.3435053 0
vt 6.361083E-08 0
vt 0.3435053 0.828247
vt 6.361083E-08 0.828247
vt 0.3379984 0
vt 0.005506154 0
vt 0.3379984 0.828247
vt 0.005506154 0.828247
vt 0.3435052 0
vt 0 0
vt 0.3435052 0.828247
vt 0 0.828247
vt 0.005506154 1
vt 0.3379984 1
vt 0.005506154 0.6564948
vt 0.3379984 0.6564948
vt 0.3379991 0.6564948
vt 0.005506811 0.6564948
vt 0.3379991 1
vt 0.005506811 1

g ClawHeadTop
usemtl Default_Prototype
f 1/1/1 2/2/2 4/4/4 3/3/3
f 5/5/5 6/6/6 8/8/8 7/7/7
f 9/9/9 10/10/10 12/12/12 11/11/11
f 13/13/13 14/14/14 16/16/16 15/15/15
f 17/17/17 18/18/18 20/20/20 19/19/19
f 21/21/21 22/22/22 24/24/24 23/23/23

