# Exported from ProBuilder
# http://www.procore3d.com/probuilder
# 2/8/2019 7:06:01 AM

mtllib ./PictureFrame.mtl
o PictureFrame

g PictureFrame
v 0.00999999 -0.9973868 0.5078851
v 0.99 -0.9973868 0.5078851
v 0.00999999 0.9798244 0.5078851
v 0.99 0.9798244 0.5078851
v 0.99 -0.9973868 0.5078851
v 0.99 -0.9973868 0.3869609
v 0.99 0.9798244 0.5078851
v 0.99 0.9798244 0.3869609
v 0.9426814 -0.9019186 0.4346313
v 0.05731857 -0.9019186 0.4346313
v 0.9426814 0.8843563 0.4346313
v 0.05731857 0.8843563 0.4346313
v 0.00999999 -0.9973868 0.3869609
v 0.00999999 -0.9973868 0.5078851
v 0.00999999 0.9798244 0.3869609
v 0.00999999 0.9798244 0.5078851
v 0.00999999 0.9798244 0.5078851
v 0.99 0.9798244 0.5078851
v 0.00999999 0.9798244 0.3869609
v 0.99 0.9798244 0.3869609
v 0.00999999 -0.9973868 0.3869609
v 0.99 -0.9973868 0.3869609
v 0.00999999 -0.9973868 0.5078851
v 0.99 -0.9973868 0.5078851
v 0.99 -0.9973868 0.3869609
v 0.00999999 -0.9973868 0.3869609
v 0.9426814 -0.9019186 0.3868609
v 0.05731857 -0.9019186 0.3868609
v 0.99 0.9798244 0.3869609
v 0.99 -0.9973868 0.3869609
v 0.9426814 0.8843563 0.3868609
v 0.9426814 -0.9019186 0.3868609
v 0.00999999 -0.9973868 0.3869609
v 0.00999999 0.9798244 0.3869609
v 0.05731857 -0.9019186 0.3868609
v 0.05731857 0.8843563 0.3868609
v 0.00999999 0.9798244 0.3869609
v 0.99 0.9798244 0.3869609
v 0.05731857 0.8843563 0.3868609
v 0.9426814 0.8843563 0.3868609
v 0.9426814 -0.9019186 0.3868609
v 0.05731857 -0.9019186 0.3868609
v 0.9426814 -0.9019186 0.4346313
v 0.05731857 -0.9019186 0.4346313
v 0.9426814 0.8843563 0.3868609
v 0.9426814 -0.9019186 0.3868609
v 0.9426814 0.8843563 0.4346313
v 0.9426814 -0.9019186 0.4346313
v 0.05731857 -0.9019186 0.3868609
v 0.05731857 0.8843563 0.3868609
v 0.05731857 -0.9019186 0.4346313
v 0.05731857 0.8843563 0.4346313
v 0.05731857 0.8843563 0.3868609
v 0.9426814 0.8843563 0.3868609
v 0.05731857 0.8843563 0.4346313
v 0.9426814 0.8843563 0.4346313

vn 0 0 1
vn 0 0 1
vn 0 0 1
vn 0 0 1
vn 1 0 0
vn 1 0 0
vn 1 0 0
vn 1 0 0
vn 0 0 -1
vn 0 0 -1
vn 0 0 -1
vn 0 0 -1
vn -1 0 0
vn -1 0 0
vn -1 0 0
vn -1 0 0
vn 0 1 0
vn 0 1 0
vn 0 1 0
vn 0 1 0
vn 0 -1 0
vn 0 -1 0
vn 0 -1 0
vn 0 -1 0
vn 0 -0.001047331 -0.9999995
vn 0 -0.001047331 -0.9999995
vn 0 -0.001047331 -0.9999995
vn 0 -0.001047331 -0.9999995
vn 0.002113051 0 -0.9999977
vn 0.002113051 0 -0.9999979
vn 0.002113051 0 -0.9999979
vn 0.002113051 0 -0.9999978
vn -0.002113051 0 -0.9999977
vn -0.002113051 0 -0.9999979
vn -0.002113051 0 -0.9999979
vn -0.002113051 0 -0.9999978
vn 0 0.001047331 -0.9999995
vn 0 0.001047331 -0.9999995
vn 0 0.001047331 -0.9999995
vn 0 0.001047331 -0.9999995
vn 0 1 0
vn 0 1 0
vn 0 1 0
vn 0 1 0
vn -1 0 0
vn -1 0 0
vn -1 0 0
vn -1 0 0
vn 1 0 0
vn 1 0 0
vn 1 0 0
vn 1 0 0
vn 0 -1 0
vn 0 -1 0
vn 0 -1 0
vn 0 -1 0

vt 0.1431511 0.5047024
vt 0.01175636 0.5047024
vt 0.1431511 0.7697994
vt 0.01175636 0.7697994
vt 0.8597178 0.07604978
vt 0.8417033 0.07604978
vt 0.8597178 0.3706021
vt 0.8417033 0.3706021
vt 0.8018516 0.536752
vt 0.6831455 0.536752
vt 0.8018516 0.7762491
vt 0.6831455 0.7762491
vt 0.2049331 0.03511534
vt 0.1851171 0.03511534
vt 0.2049331 0.3591229
vt 0.1851171 0.3591229
vt 0.7855461 0.3002956
vt 0.9315402 0.3002956
vt 0.7855461 0.2822811
vt 0.9315402 0.2822811
vt 0.1660561 0.2558697
vt 0.005462556 0.2558697
vt 0.1660561 0.2756857
vt 0.005462556 0.2756857
vt 0.6372448 0.1041045
vt 0.5528926 0.1041045
vt 0.6331719 0.1123218
vt 0.5569655 0.1123218
vt 0.6373149 0.2743251
vt 0.6373149 0.1041394
vt 0.6332421 0.2661079
vt 0.6332421 0.1123567
vt 0.5528222 0.1041394
vt 0.5528222 0.2743251
vt 0.5568951 0.1123567
vt 0.5568951 0.2661079
vt 0.5528926 0.27436
vt 0.6372448 0.27436
vt 0.5569655 0.2661427
vt 0.6331719 0.2661427
vt 1 0.1936252
vt 0.8681043 0.1936252
vt 1 0.2007417
vt 0.8681043 0.2007417
vt 0.4071664 0.3784645
vt 0.4071664 0
vt 0.3970452 0.3784645
vt 0.3970452 0
vt 0.9171973 0.00163098
vt 0.9171973 0.2677388
vt 0.924314 0.00163098
vt 0.924314 0.2677388
vt 0.1450853 0.20197
vt 0 0.20197
vt 0.1450853 0.2097982
vt 0 0.2097982

g PictureFrame
usemtl Default_Prototype
f 1/1/1 2/2/2 3/3/3
f 2/2/2 4/4/4 3/3/3
f 5/5/5 6/6/6 7/7/7
f 6/6/6 8/8/8 7/7/7
f 9/9/9 10/10/10 11/11/11
f 10/10/10 12/12/12 11/11/11
f 13/13/13 14/14/14 15/15/15
f 14/14/14 16/16/16 15/15/15
f 17/17/17 18/18/18 19/19/19
f 18/18/18 20/20/20 19/19/19
f 21/21/21 22/22/22 23/23/23
f 22/22/22 24/24/24 23/23/23
f 25/25/25 26/26/26 27/27/27
f 26/26/26 28/28/28 27/27/27
f 29/29/29 30/30/30 31/31/31
f 30/30/30 32/32/32 31/31/31
f 33/33/33 34/34/34 35/35/35
f 34/34/34 36/36/36 35/35/35
f 37/37/37 38/38/38 39/39/39
f 38/38/38 40/40/40 39/39/39
f 41/41/41 42/42/42 43/43/43
f 42/42/42 44/44/44 43/43/43
f 45/45/45 46/46/46 47/47/47
f 46/46/46 48/48/48 47/47/47
f 49/49/49 50/50/50 51/51/51
f 50/50/50 52/52/52 51/51/51
f 53/53/53 54/54/54 55/55/55
f 54/54/54 56/56/56 55/55/55

