# File produced by Open Asset Import Library (http://www.assimp.sf.net)
# (assimp v3.1.193236683)

mtllib BottomHalfCabinet_EXPORT.mtl

# 21 vertex positions
v  0 -0.555667 -1.92839
v  1.8819 -0.555667 -1.92839
v  0 -0.555667 0
v  1.8819 -0.555667 0
v  0 1.38322 0
v  0.940951 1.38322 0
v  1.8819 1.38322 0
v  1.8819 1.38322 -0.964195
v  1.8819 1.38322 -1.92839
v  0.940951 1.38322 -1.92839
v  0 1.38322 -1.92839
v  0 1.38322 -0.964195
v  0.940951 1.38322 -0.964195
v  0.625574 0.910683 -1.86879
v  0.10607 0.910683 -1.86879
v  0.10607 0.910683 -1.31284
v  0.625574 0.910683 -1.31284
v  0.625574 1.38332 -1.86879
v  0.10607 1.38332 -1.86879
v  0.10607 1.38332 -1.31284
v  0.625574 1.38332 -1.31284

# 65 UV coordinates
vt 0.260121 0.122566 0
vt 0 0.122566 0
vt 0.260121 0.389113 0
vt 0 0.389113 0
vt 0.262406 0.966539 0
vt 0.262406 0.698542 0
vt 0.132346 0.966539 0
vt 0.00228543 0.698542 0
vt 0.00228543 0.966539 0
vt 0.269262 0.680862 0
vt 0.269262 0.412865 0
vt 0.135989 0.680862 0
vt 0.00271605 0.412865 0
vt 0.00271605 0.680862 0
vt 0.392466 0.966539 0
vt 0.522527 0.966539 0
vt 0.522527 0.698542 0
vt 0.402535 0.680862 0
vt 0.535808 0.680862 0
vt 0.535808 0.412865 0
vt 0.390181 0.255839 0
vt 0.260121 0.255839 0
vt 0.390181 0.389113 0
vt 0.520241 0.255839 0
vt 0.520241 0.389113 0
vt 0.959777 0 0
vt 0.718506 0 0
vt 0.718506 0.247231 0
vt 0.959777 0.247231 0
vt 0.63764 0.015283 0
vt 0.504432 0.015283 0
vt 0.504432 0.157834 0
vt 0.63764 0.157834 0
vt 0.718506 0.000595837 0
vt 0.477235 0.000595837 0
vt 0.63764 0.0158789 0
vt 0.504432 0.0158789 0
vt 0.477569 0 0
vt 0.477569 0.247231 0
vt 0.504767 0.015283 0
vt 0.504767 0.157834 0
vt 0.718394 0.247231 0
vt 0.718394 0 0
vt 0.637527 0.157834 0
vt 0.637527 0.015283 0
vt 0.477235 0.247129 0
vt 0.718506 0.247129 0
vt 0.504432 0.157732 0
vt 0.63764 0.157732 0
vt 0.812765 0.572628 0
vt 0.945972 0.572628 0
vt 0.812765 0.451438 0
vt 0.945972 0.451438 0
vt 0.813948 0.712038 0
vt 0.956498 0.712038 0
vt 0.813948 0.590848 0
vt 0.956498 0.590848 0
vt 0.813864 0.849163 0
vt 0.956414 0.849163 0
vt 0.813864 0.727973 0
vt 0.956414 0.727973 0
vt 0.819819 1 0
vt 0.953026 1 0
vt 0.819819 0.87881 0
vt 0.953026 0.87881 0

# 17 vertex normals
vn 0 -1 0
vn 0 0 1
vn 0 0 1
vn 1 0 0
vn 0 0 -1
vn 0 0 -1
vn -1 0 0
vn 0 1 0
vn 0 0.999999 -0.00167804
vn 0 0.999999 -0.00167803
vn 0 0.999999 -0.00167804
vn -0.000942934 1 0
vn -0.000942934 1 0
vn 0.000317133 1 0
vn 0.000317133 1 0
vn 0 1 0.000286869
vn 0 1 0.000286869

# Mesh 'g BottomHalfCabinet_Backup (1)_BottomHalfCabinet_Backup' with 38 faces
g g BottomHalfCabinet_Backup (1)_BottomHalfCabinet_Backup
usemtl Default_Prototype
f  1/1/1 2/2/1 3/3/1
f  2/2/1 4/4/1 3/3/1
f  5/5/2 3/6/3 6/7/2
f  4/8/3 6/7/2 3/6/3
f  4/8/3 7/9/2 6/7/2
f  7/10/4 4/11/4 8/12/4
f  2/13/4 8/12/4 4/11/4
f  2/13/4 9/14/4 8/12/4
f  10/15/5 9/16/5 2/17/6
f  1/6/6 10/15/5 2/17/6
f  10/15/5 1/6/6 11/5/5
f  12/18/7 11/19/7 1/20/7
f  3/11/7 12/18/7 1/20/7
f  12/18/7 3/11/7 5/10/7
f  13/21/8 12/22/8 5/3/8
f  6/23/8 13/21/8 5/3/8
f  8/24/8 13/21/8 6/23/8
f  7/25/8 8/24/8 6/23/8
f  9/26/8 10/27/8 13/28/8
f  8/29/8 9/26/8 13/28/8
f  14/30/8 15/31/8 16/32/8
f  17/33/8 14/30/8 16/32/8
f  10/34/9 11/35/10 18/36/10
f  11/35/10 19/37/11 18/36/10
f  11/38/12 12/39/12 19/40/12
f  12/39/12 20/41/13 19/40/12
f  13/42/14 10/43/15 21/44/15
f  10/43/15 18/45/15 21/44/15
f  12/46/16 13/47/16 20/48/16
f  13/47/16 21/49/17 20/48/16
f  18/50/3 19/51/3 14/52/3
f  19/51/3 15/53/3 14/52/3
f  19/54/4 20/55/4 15/56/4
f  20/55/4 16/57/4 15/56/4
f  21/58/7 18/59/7 17/60/7
f  18/59/7 14/61/7 17/60/7
f  20/62/6 21/63/6 16/64/6
f  21/63/6 17/65/6 16/64/6

