# Exported from ProBuilder
# http://www.procore3d.com/probuilder
# 2/6/2019 5:24:21 AM

mtllib ./Top.mtl
o Top

g Top
v -0.1078944 0 0.1415954
v 1.107894 0 0.1415954
v -0.1078944 0.1680102 0.1415954
v 1.107894 0.1680102 0.1415954
v 1.107894 0 0.1415954
v 1.107894 0 -1.054158
v 1.107894 0.1680102 0.1415954
v 1.107894 0.1680102 -1.054158
v 1.107894 0 -1.054158
v -0.1078944 0 -1.054158
v 1.107894 0.1680102 -1.054158
v -0.1078944 0.1680102 -1.054158
v -0.1078944 0 -1.054158
v -0.1078944 0 0.1415954
v -0.1078944 0.1680102 -1.054158
v -0.1078944 0.1680102 0.1415954
v 0 0.1680102 0.04371858
v 1 0.1680102 0.04371858
v 0 0.1680102 -0.9562814
v 1 0.1680102 -0.9562814
v 0 0 -0.9562814
v 1 0 -0.9562814
v 0 0 0.04371858
v 1 0 0.04371858
v 1 0 0.04371858
v 1 0 -0.9562814
v 1.000071 0 0.1415247
v 1.000071 0 -1.054088
v 1 0.1680102 0.04371858
v 0 0.1680102 0.04371858
v 1.000071 0.1680102 0.1415247
v -7.069111E-05 0.1680102 0.1415247
v 1 0.1680102 -0.9562814
v 1 0.1680102 0.04371858
v 1.000071 0.1680102 -1.054088
v 1.000071 0.1680102 0.1415247
v 1 0 -0.9562814
v 0 0 -0.9562814
v 1.000071 0 -1.054088
v -7.069111E-05 0 -1.054088
v 0 0.1680102 -0.9562814
v 1 0.1680102 -0.9562814
v -7.069111E-05 0.1680102 -1.054088
v 1.000071 0.1680102 -1.054088
v 0 0 -0.9562814
v 0 0 0.04371858
v -7.069111E-05 0 -1.054088
v -7.069111E-05 0 0.1415247
v 0 0.1680102 0.04371858
v 0 0.1680102 -0.9562814
v -7.069111E-05 0.1680102 0.1415247
v -7.069111E-05 0.1680102 -1.054088
v 0 0 0.04371858
v 1 0 0.04371858
v -7.069111E-05 0 0.1415247
v 1.000071 0 0.1415247
v 1.000071 0 0.1415247
v 1.000071 0 -1.054088
v 1.107894 0 0.1415954
v 1.107894 0 -1.054158
v 1.000071 0.1680102 0.1415247
v -7.069111E-05 0.1680102 0.1415247
v 1.107894 0.1680102 0.1415954
v -0.1078944 0.1680102 0.1415954
v 1.000071 0.1680102 -1.054088
v 1.000071 0.1680102 0.1415247
v 1.107894 0.1680102 -1.054158
v 1.107894 0.1680102 0.1415954
v 1.000071 0 -1.054088
v -7.069111E-05 0 -1.054088
v 1.107894 0 -1.054158
v -0.1078944 0 -1.054158
v -7.069111E-05 0.1680102 -1.054088
v 1.000071 0.1680102 -1.054088
v -0.1078944 0.1680102 -1.054158
v 1.107894 0.1680102 -1.054158
v -7.069111E-05 0 -1.054088
v -7.069111E-05 0 0.1415247
v -0.1078944 0 -1.054158
v -0.1078944 0 0.1415954
v -7.069111E-05 0.1680102 0.1415247
v -7.069111E-05 0.1680102 -1.054088
v -0.1078944 0.1680102 0.1415954
v -0.1078944 0.1680102 -1.054158
v -7.069111E-05 0 0.1415247
v 1.000071 0 0.1415247
v -0.1078944 0 0.1415954
v 1.107894 0 0.1415954

vn 0 0 1
vn 0 0 1
vn 0 0 1
vn 0 0 1
vn 1 0 0
vn 1 0 0
vn 1 0 0
vn 1 0 0
vn 0 0 -1
vn 0 0 -1
vn 0 0 -1
vn 0 0 -1
vn -1 0 0
vn -1 0 0
vn -1 0 0
vn -1 0 0
vn 0 1 0
vn 0 1 0
vn 0 1 0
vn 0 1 0
vn 0 -1 0
vn 0 -1 0
vn 0 -1 0
vn 0 -1 0
vn 0 -1 0
vn 0 -1 0
vn 0 -1 0
vn 0 -1 0
vn 0 1 0
vn 0 1 0
vn 0 1 0
vn 0 1 0
vn 0 1 0
vn 0 1 0
vn 0 1 0
vn 0 1 0
vn 0 -1 0
vn 0 -1 0
vn 0 -1 0
vn 0 -1 0
vn 0 1 0
vn 0 1 0
vn 0 1 0
vn 0 1 0
vn 0 -1 0
vn 0 -1 0
vn 0 -1 0
vn 0 -1 0
vn 0 1 0
vn 0 1 0
vn 0 1 0
vn 0 1 0
vn 0 -1 0
vn 0 -1 0
vn 0 -1 0
vn 0 -1 0
vn 0 -1 0
vn 0 -1 0
vn 0 -1 0
vn 0 -1 0
vn 0 1 0
vn 0 1 0
vn 0 1 0
vn 0 1 0
vn 0 1 0
vn 0 1 0
vn 0 1 0
vn 0 1 0
vn 0 -1 0
vn 0 -1 0
vn 0 -1 0
vn 0 -1 0
vn 0 1 0
vn 0 1 0
vn 0 1 0
vn 0 1 0
vn 0 -1 0
vn 0 -1 0
vn 0 -1 0
vn 0 -1 0
vn 0 1 0
vn 0 1 0
vn 0 1 0
vn 0 1 0
vn 0 -1 0
vn 0 -1 0
vn 0 -1 0
vn 0 -1 0

vt 0.1078944 0
vt -1.107894 0
vt 0.1078944 0.1680102
vt -1.107894 0.1680102
vt 0.1415954 0
vt -1.054158 0
vt 0.1415954 0.1680102
vt -1.054158 0.1680102
vt 1.107894 0
vt -0.1078944 0
vt 1.107894 0.1680102
vt -0.1078944 0.1680102
vt 1.054158 0
vt -0.1415954 0
vt 1.054158 0.1680102
vt -0.1415954 0.1680102
vt 0 0.04371858
vt 1 0.04371858
vt 0 -0.9562814
vt 1 -0.9562814
vt 0 -0.9562814
vt -1 -0.9562814
vt 0 0.04371858
vt -1 0.04371858
vt -1 0.04371858
vt -1 -0.9562814
vt -1.000071 0.1415247
vt -1.000071 -1.054088
vt 1 0.04371858
vt 0 0.04371858
vt 1.000071 0.1415247
vt -7.069111E-05 0.1415247
vt 1 -0.9562814
vt 1 0.04371858
vt 1.000071 -1.054088
vt 1.000071 0.1415247
vt -1 -0.9562814
vt 0 -0.9562814
vt -1.000071 -1.054088
vt 7.069111E-05 -1.054088
vt 0 -0.9562814
vt 1 -0.9562814
vt -7.069111E-05 -1.054088
vt 1.000071 -1.054088
vt 0 -0.9562814
vt 0 0.04371858
vt 7.069111E-05 -1.054088
vt 7.069111E-05 0.1415247
vt 0 0.04371858
vt 0 -0.9562814
vt -7.069111E-05 0.1415247
vt -7.069111E-05 -1.054088
vt 0 0.04371858
vt -1 0.04371858
vt 7.069111E-05 0.1415247
vt -1.000071 0.1415247
vt -1.000071 0.1415247
vt -1.000071 -1.054088
vt -1.107894 0.1415954
vt -1.107894 -1.054158
vt 1.000071 0.1415247
vt -7.069111E-05 0.1415247
vt 1.107894 0.1415954
vt -0.1078944 0.1415954
vt 1.000071 -1.054088
vt 1.000071 0.1415247
vt 1.107894 -1.054158
vt 1.107894 0.1415954
vt -1.000071 -1.054088
vt 7.069111E-05 -1.054088
vt -1.107894 -1.054158
vt 0.1078944 -1.054158
vt -7.069111E-05 -1.054088
vt 1.000071 -1.054088
vt -0.1078944 -1.054158
vt 1.107894 -1.054158
vt 7.069111E-05 -1.054088
vt 7.069111E-05 0.1415247
vt 0.1078944 -1.054158
vt 0.1078944 0.1415954
vt -7.069111E-05 0.1415247
vt -7.069111E-05 -1.054088
vt -0.1078944 0.1415954
vt -0.1078944 -1.054158
vt 7.069111E-05 0.1415247
vt -1.000071 0.1415247
vt 0.1078944 0.1415954
vt -1.107894 0.1415954

g Top
usemtl Default_Prototype
f 1/1/1 2/2/2 4/4/4 3/3/3
f 5/5/5 6/6/6 8/8/8 7/7/7
f 9/9/9 10/10/10 12/12/12 11/11/11
f 13/13/13 14/14/14 16/16/16 15/15/15
f 17/17/17 18/18/18 20/20/20 19/19/19
f 21/21/21 22/22/22 24/24/24 23/23/23
f 25/25/25 26/26/26 28/28/28 27/27/27
f 29/29/29 30/30/30 32/32/32 31/31/31
f 33/33/33 34/34/34 36/36/36 35/35/35
f 37/37/37 38/38/38 40/40/40 39/39/39
f 41/41/41 42/42/42 44/44/44 43/43/43
f 45/45/45 46/46/46 48/48/48 47/47/47
f 49/49/49 50/50/50 52/52/52 51/51/51
f 53/53/53 54/54/54 56/56/56 55/55/55
f 57/57/57 58/58/58 60/60/60 59/59/59
f 61/61/61 62/62/62 64/64/64 63/63/63
f 65/65/65 66/66/66 68/68/68 67/67/67
f 69/69/69 70/70/70 72/72/72 71/71/71
f 73/73/73 74/74/74 76/76/76 75/75/75
f 77/77/77 78/78/78 80/80/80 79/79/79
f 81/81/81 82/82/82 84/84/84 83/83/83
f 85/85/85 86/86/86 88/88/88 87/87/87

